HIERARCHY
ROOT pelvis
{
	OFFSET 0.000000 0.000000 0.946482
	CHANNELS 6 Xposition Yposition Zposition Xrotation Yrotation Zrotation
	JOINT spine
	{
		OFFSET 0.000000 0.000000 0.000000
		CHANNELS 6 Xposition Yposition Zposition Xrotation Yrotation Zrotation
		JOINT spine.001
		{
			OFFSET 0.000000 -0.014824 0.282854
			CHANNELS 3 Xrotation Yrotation Zrotation
			JOINT neck
			{
				OFFSET 0.000000 0.034519 0.281131
				CHANNELS 6 Xposition Yposition Zposition Xrotation Yrotation Zrotation
				JOINT face
				{
					OFFSET 0.000000 0.003779 0.216495
					CHANNELS 6 Xposition Yposition Zposition Xrotation Yrotation Zrotation
					End Site
					{
						OFFSET -0.000000 -0.031188 -0.009112
					}
				}
			}
			JOINT shoulder.L
			{
				OFFSET 0.000000 0.034519 0.281131
				CHANNELS 6 Xposition Yposition Zposition Yrotation Xrotation Zrotation
				JOINT upper_arm.L
				{
					OFFSET 0.181840 0.000000 0.000000
					CHANNELS 6 Xposition Yposition Zposition Xrotation Yrotation Zrotation
					JOINT forearm.L
					{
						OFFSET 0.301621 0.000135 0.001119
						CHANNELS 6 Xposition Yposition Zposition Xrotation Yrotation Zrotation
						End Site
						{
							OFFSET 0.295879 -0.005041 -0.001544
						}
					}
				}
			}
			JOINT shoulder.R
			{
				OFFSET 0.000000 0.034519 0.281131
				CHANNELS 6 Xposition Yposition Zposition Yrotation Xrotation Zrotation
				JOINT upper_arm.R
				{
					OFFSET -0.181840 0.000000 0.000000
					CHANNELS 6 Xposition Yposition Zposition Xrotation Yrotation Zrotation
					JOINT forearm.R
					{
						OFFSET -0.299418 0.000135 0.001119
						CHANNELS 6 Xposition Yposition Zposition Xrotation Yrotation Zrotation
						End Site
						{
							OFFSET -0.290716 -0.004951 -0.001543
						}
					}
				}
			}
		}
	}
	JOINT pelvis.L
	{
		OFFSET 0.000000 0.000000 0.000000
		CHANNELS 6 Xposition Yposition Zposition Yrotation Xrotation Zrotation
		End Site
		{
			OFFSET 0.101646 0.000000 0.000000
		}
	}
	JOINT pelvis.R
	{
		OFFSET 0.000000 0.000000 0.000000
		CHANNELS 6 Xposition Yposition Zposition Yrotation Xrotation Zrotation
		End Site
		{
			OFFSET -0.101646 0.000000 0.000000
		}
	}
	JOINT thigh.L
	{
		OFFSET 0.101646 0.000000 0.000000
		CHANNELS 6 Xposition Yposition Zposition Xrotation Yrotation Zrotation
		JOINT shin.L
		{
			OFFSET 0.022393 0.000000 -0.427281
			CHANNELS 6 Xposition Yposition Zposition Xrotation Yrotation Zrotation
			JOINT foot.L
			{
				OFFSET 0.022450 0.000000 -0.428364
				CHANNELS 3 Xrotation Yrotation Zrotation
				End Site
				{
					OFFSET 0.019133 -0.195080 -0.081917
				}
			}
			JOINT heel.02.L
			{
				OFFSET 0.022450 0.000000 -0.428364
				CHANNELS 3 Xrotation Yrotation Zrotation
				End Site
				{
					OFFSET 0.097148 0.040252 -0.084693
				}
			}
		}
	}
	JOINT thigh.R
	{
		OFFSET -0.101646 0.000000 0.000000
		CHANNELS 6 Xposition Yposition Zposition Xrotation Yrotation Zrotation
		JOINT shin.R
		{
			OFFSET -0.021811 0.000000 -0.416178
			CHANNELS 6 Xposition Yposition Zposition Xrotation Yrotation Zrotation
			JOINT foot.R
			{
				OFFSET -0.023542 0.000000 -0.449215
				CHANNELS 3 Xrotation Yrotation Zrotation
				End Site
				{
					OFFSET -0.019950 -0.203411 -0.085416
				}
			}
			JOINT heel.02.R
			{
				OFFSET -0.023542 0.000000 -0.449215
				CHANNELS 3 Xrotation Yrotation Zrotation
				End Site
				{
					OFFSET -0.119885 0.040252 -0.073728
				}
			}
		}
	}
}
MOTION
Frames: 9
Frame Time: 0.041667
0.058776 -0.000086 0.931526 -0.000000 0.000000 -7.315564 -0.000000 -0.000000 0.000000 -11.147577 4.691021 0.707642 9.979129 0.541091 4.411197 0.000000 0.034518 0.281131 15.148277 3.545394 7.721359 0.000000 0.003779 0.216495 7.056301 0.000001 0.000002 0.000000 0.034519 0.281131 0.250537 0.000067 -0.030696 0.181839 -0.000000 -0.000000 -20.571925 77.571592 25.359883 0.301621 0.000135 0.001119 18.719880 38.805498 -48.759587 0.000000 0.034519 0.281131 0.305416 0.000099 -0.037494 -0.181839 -0.000000 -0.000000 23.675667 -75.161184 30.465417 -0.299418 0.000135 0.001119 11.746603 -31.583327 38.637957 0.000000 -0.000000 0.000000 5.336410 -0.000002 0.000055 0.000000 -0.000000 0.000000 5.336439 -0.000001 0.000003 0.101205 0.000000 -0.009453 0.412202 5.201488 0.002887 0.022393 0.000000 -0.427281 10.294976 -1.336870 0.661017 -10.299692 -3.003765 3.662060 -13.514175 47.189118 31.158715 -0.101205 0.000000 0.009453 -5.826601 0.822748 0.347362 -0.021811 0.000000 -0.416178 15.291844 2.793579 -1.179751 -8.342620 4.568492 -7.259887 -19.077314 -50.042057 -43.803024 
0.058814 -0.000097 0.931425 -0.000000 0.000000 -7.310071 0.000000 0.000000 -0.000000 -11.158532 4.691352 0.708151 9.979092 0.542816 4.425693 -0.000000 0.034519 0.281131 15.015676 3.546269 7.676374 0.000000 0.003779 0.216495 7.119878 0.000002 0.000006 -0.000000 0.034519 0.281131 0.248771 0.000067 -0.030626 0.181840 -0.000000 0.000000 -20.558246 77.574563 25.341868 0.301621 0.000135 0.001119 18.660331 38.781490 -48.645919 -0.000000 0.034519 0.281131 0.303687 0.000099 -0.037296 -0.181839 -0.000000 0.000000 23.602308 -75.158773 30.374183 -0.299418 0.000135 0.001119 11.765802 -31.584215 38.698257 0.000000 0.000000 -0.000000 5.341774 -0.000003 0.000091 0.000000 0.000000 -0.000000 5.341739 -0.000001 0.000003 0.101205 0.000000 -0.009463 0.427746 5.190960 0.003035 0.022393 -0.000000 -0.427281 10.258150 -1.310966 0.656321 -10.247448 -3.002673 3.674504 -13.571714 47.241502 31.207643 -0.101205 0.000000 0.009463 -5.826528 0.821130 0.347276 -0.021811 -0.000000 -0.416178 15.295170 2.797264 -1.180501 -8.348208 4.574590 -7.269663 -19.097841 -50.054215 -43.805446 
0.058852 -0.000100 0.931348 -0.000000 0.000000 -7.300665 -0.000000 -0.000000 -0.000000 -11.174150 4.692799 0.709023 9.978801 0.546656 4.457099 -0.000000 0.034519 0.281131 14.852668 3.526617 7.600115 0.000000 0.003779 0.216495 7.210499 0.000001 0.000002 -0.000000 0.034518 0.281131 0.247054 0.000066 -0.030355 0.181840 0.000000 0.000000 -20.475842 77.584126 25.237105 0.301621 0.000135 0.001119 18.602543 38.759025 -48.534392 -0.000000 0.034518 0.281131 0.301969 0.000099 -0.037096 -0.181839 -0.000000 -0.000000 23.462309 -75.172680 30.190399 -0.299418 0.000135 0.001119 11.797141 -31.583587 38.799217 0.000000 -0.000000 0.000000 5.339851 -0.000003 0.000077 0.000000 -0.000000 0.000000 5.339849 -0.000001 0.000002 0.101205 0.000000 -0.009460 0.434104 5.184067 0.003107 0.022393 -0.000000 -0.427281 10.240989 -1.292672 0.653584 -10.217341 -2.999855 3.677591 -13.628008 47.289668 31.248822 -0.101205 -0.000000 0.009459 -5.828014 0.818653 0.347241 -0.021811 -0.000000 -0.416178 15.301174 2.802219 -1.181633 -8.352147 4.582674 -7.283897 -19.122836 -50.070163 -43.819587 
0.058888 -0.000093 0.931272 -0.000000 0.000000 -7.288016 0.000000 -0.000000 -0.000000 -11.192597 4.694836 0.710105 9.978326 0.551889 4.499578 -0.000000 0.034519 0.281131 14.662075 3.492122 7.513276 0.000000 0.003779 0.216495 7.335991 0.000001 0.000006 -0.000000 0.034518 0.281131 0.239855 0.000061 -0.029436 0.181840 -0.000000 -0.000000 -20.357505 77.610770 25.081061 0.301621 0.000135 0.001119 18.547725 38.730875 -48.436874 -0.000000 0.034518 0.281131 0.294810 0.000092 -0.036211 -0.181839 -0.000000 0.000000 23.273209 -75.192084 29.941985 -0.299418 0.000135 0.001119 11.834758 -31.585551 38.916898 0.000000 -0.000000 0.000000 5.330369 -0.000001 0.000038 0.000000 -0.000000 0.000000 5.330334 -0.000001 0.000002 0.101206 0.000000 -0.009443 0.433532 5.176291 0.003130 0.022393 0.000000 -0.427281 10.232303 -1.274108 0.651375 -10.196419 -2.996744 3.677556 -13.671630 47.328437 31.284227 -0.101207 -0.000000 0.009443 -5.831040 0.815462 0.347257 -0.021811 0.000000 -0.416178 15.309697 2.807158 -1.182960 -8.352774 4.592884 -7.303403 -19.149117 -50.087833 -43.843148 
0.058922 -0.000079 0.931169 -0.000000 0.000000 -7.274742 0.000000 -0.000000 0.000000 -11.214128 4.696620 0.711279 9.977954 0.556149 4.534200 0.000000 0.034518 0.281131 14.467447 3.453514 7.436114 -0.000000 0.003779 0.216495 7.481545 0.000001 0.000007 0.000000 0.034519 0.281131 0.226918 0.000057 -0.027816 0.181840 0.000000 0.000000 -20.319473 77.658506 25.014062 0.301621 0.000135 0.001119 18.490890 38.677070 -48.366362 0.000000 0.034519 0.281131 0.281796 0.000087 -0.034581 -0.181839 -0.000000 0.000000 23.114159 -75.195854 29.739463 -0.299418 0.000135 0.001119 11.865697 -31.595246 39.003297 0.000000 0.000000 0.000000 5.311609 -0.000002 0.000069 0.000000 0.000000 0.000000 5.311573 -0.000001 -0.000001 0.101210 -0.000000 -0.009410 0.430758 5.167095 0.003147 0.022393 0.000000 -0.427281 10.229682 -1.253745 0.649390 -10.196723 -2.996483 3.676992 -13.696101 47.354395 31.313887 -0.101210 -0.000000 0.009409 -5.836048 0.813175 0.347441 -0.021811 0.000000 -0.416178 15.321053 2.809353 -1.184140 -8.342575 4.603111 -7.326847 -19.169542 -50.102153 -43.867317 
0.058965 -0.000068 0.931035 -0.000000 0.000000 -7.260981 0.000000 0.000000 -0.000000 -11.237903 4.697559 0.712419 9.977954 0.556549 4.537727 -0.000000 0.034519 0.281131 14.302255 3.418833 7.403630 0.000000 0.003779 0.216495 7.615534 -0.000001 0.000000 -0.000000 0.034518 0.281131 0.216247 0.000050 -0.026666 0.181840 -0.000000 -0.000000 -20.363272 77.728523 25.037331 0.301621 0.000135 0.001119 18.404570 38.575191 -48.284096 -0.000000 0.034518 0.281131 0.271162 0.000081 -0.033332 -0.181839 0.000000 -0.000000 23.061222 -75.173431 29.684019 -0.299418 0.000135 0.001119 11.882703 -31.617355 39.029327 0.000000 0.000000 0.000000 5.286232 0.000006 -0.000101 0.000000 0.000000 0.000000 5.286230 -0.000001 0.000000 0.101214 0.000000 -0.009365 0.430736 5.160314 0.003171 0.022393 -0.000000 -0.427281 10.241447 -1.236357 0.648589 -10.244723 -2.999580 3.669466 -13.708797 47.372481 31.339941 -0.101214 -0.000000 0.009365 -5.842912 0.813171 0.347849 -0.021811 -0.000000 -0.416178 15.336590 2.807671 -1.185133 -8.313119 4.611955 -7.354597 -19.179473 -50.109796 -43.885967 
0.059027 -0.000069 0.930894 -0.000000 0.000000 -7.246368 0.000000 0.000000 0.000000 -11.258750 4.697323 0.713259 9.978304 0.552413 4.504010 -0.000000 0.034519 0.281131 14.178783 3.391697 7.430786 -0.000000 0.003779 0.216495 7.718717 0.000001 0.000008 -0.000000 0.034518 0.281131 0.217744 0.000051 -0.026837 0.181840 -0.000000 -0.000000 -20.352055 77.814610 24.986625 0.301621 0.000135 0.001119 18.269769 38.427406 -48.140321 -0.000000 0.034518 0.281131 0.272657 0.000080 -0.033518 -0.181839 -0.000000 -0.000000 23.118333 -75.136630 29.774806 -0.299418 0.000135 0.001119 11.890518 -31.652121 39.009806 0.000000 0.000000 0.000000 5.261973 0.000003 -0.000055 0.000000 0.000000 0.000000 5.262003 -0.000001 0.000002 0.101218 0.000000 -0.009322 0.435179 5.158634 0.003212 0.022393 -0.000000 -0.427281 10.272281 -1.225257 0.649557 -10.348948 -3.004246 3.649318 -13.726696 47.394078 31.367787 -0.101218 0.000000 0.009322 -5.851769 0.815366 0.348488 -0.021811 0.000000 -0.416178 15.358324 2.803945 -1.186332 -8.267217 4.620395 -7.387547 -19.178587 -50.110520 -43.897875 
0.059093 -0.000077 0.930788 -0.000000 0.000000 -7.234475 -0.000000 0.000000 0.000000 -11.273973 4.695839 0.713673 9.978677 0.547384 4.462924 -0.000000 0.034519 0.281131 14.081966 3.368438 7.458852 -0.000000 0.003779 0.216495 7.800891 0.000002 0.000005 0.000000 0.034518 0.281131 0.231712 0.000057 -0.028493 0.181840 0.000000 0.000000 -20.373754 77.881382 24.984361 0.301621 0.000135 0.001119 18.158405 38.294504 -48.034029 0.000000 0.034518 0.281131 0.286627 0.000086 -0.035255 -0.181839 -0.000000 0.000000 23.210769 -75.108961 29.905662 -0.299418 0.000135 0.001119 11.896285 -31.684339 38.987133 0.000000 0.000000 0.000000 5.242844 0.000002 -0.000031 0.000000 0.000000 0.000000 5.242875 -0.000001 0.000001 0.101221 0.000000 -0.009288 0.440790 5.158148 0.003254 0.022393 0.000000 -0.427281 10.312010 -1.216183 0.651269 -10.486981 -3.009051 3.620168 -13.760611 47.426870 31.401887 -0.101221 -0.000000 0.009288 -5.862117 0.818238 0.349254 -0.021811 -0.000000 -0.416178 15.384706 2.801836 -1.188111 -8.224349 4.630242 -7.422179 -19.170575 -50.106971 -43.908390 
0.059126 -0.000086 0.930749 -0.000000 0.000000 -7.228700 0.000000 -0.000000 0.000000 -11.291496 4.694712 0.714236 9.978751 0.547415 4.463293 -0.000000 0.034519 0.281131 14.003557 3.333842 7.383435 0.000000 0.003779 0.216495 7.882120 -0.000000 -0.000003 -0.000000 0.034519 0.281131 0.248345 0.000066 -0.030563 0.181840 -0.000000 -0.000000 -20.886360 77.868125 25.612965 0.301621 0.000135 0.001119 18.224408 38.278593 -48.216266 -0.000000 0.034519 0.281131 0.303295 0.000097 -0.037232 -0.181839 -0.000000 0.000000 23.243829 -75.104630 29.949707 -0.299418 0.000135 0.001119 11.897037 -31.682253 38.992235 0.000000 0.000000 0.000000 5.223376 -0.000002 0.000059 0.000000 0.000000 0.000000 5.223372 -0.000001 0.000000 0.101224 0.000000 -0.009254 0.441866 5.150538 0.003290 0.022393 0.000000 -0.427281 10.345371 -1.200892 0.652007 -10.626353 -3.013329 3.589786 -13.801653 47.464965 31.439583 -0.101224 -0.000000 0.009254 -5.869191 0.819390 0.349733 -0.021811 -0.000000 -0.416178 15.406513 2.804255 -1.190141 -8.206283 4.643063 -7.453606 -19.160525 -50.103365 -43.929731 
